# xmcd CD database file
#
# Track frame offsets:
#	150
#	21969
#	34360
#	50961
#	60969
#	89970
#	103477
#	120291
#	136470
#	143556
#
# Disc length: 2291 seconds
#
# Revision: 0
# Processed by: cddbd v1.5.2PL0 Copyright (c) Steve Scherf et al.
# Submitted via: CDex 1.51
#
DISCID=9508f10a
DTITLE=The Sand Pebbles - Atlantis Regrets Nothing
DYEAR=2006
DGENRE=New Age
TTITLE0=A Thousand Flowers
TTITLE1=Kitten Heels
TTITLE2=Natalie
TTITLE3=The Water Too Warm (Carry On)
TTITLE4=Altered Images
TTITLE5=Howard's End
TTITLE6=Drop City
TTITLE7=Genius
TTITLE8=BMX
TTITLE9=Elephant Gun
EXTD=YEAR: 2006
EXTT0=
EXTT1=
EXTT2=
EXTT3=
EXTT4=
EXTT5=
EXTT6=
EXTT7=
EXTT8=
EXTT9=
PLAYORDER=
